<svg xmlns="http://www.w3.org/2000/svg" width="48" height="48" viewBox="0 0 48 48" fill="none" stroke="currentColor" stroke-width="1.5" stroke-linecap="round" stroke-linejoin="round">
  <path d="M19.8 13.2c1.1-.2 3.2-.3 4.7-.3 8.4-.3 15.2 3.8 15.2 8.5s-6.8 8.5-15.2 8.5-15.2-3.8-15.2-8.5 2.4-5.3 6.2-6.8"/>
  <path d="M41.6 24c-.9 1-2 3.6-2.9 5.4-1.3 2.6-3.5 4.7-6.3 5.6-2 .6-4.1.6-8 .6-6 0-8.5-.7-10.7-2.3s-2.4-2.4-3.2-3.9-2.5-4.5-3.3-5.3"/>
  <path d="M24.4 12.9c7.2 0 13.3 2 16.3 4.9 1.1 1.1 4.3 1 4.3 2.3s-2.8 3.1-3.4 4c-2.3 3.5-9.1 6-17.2 6-8 0-14.8-2.5-17.1-5.9-.6-.8-3.6-3.3-3.6-4.3 0-1.4 3.4-1.2 4.8-2.4 1.6-1.5 4.1-2.7 7.2-3.5"/>
  <path d="M20.2 14.8c.2-1.2 1.2-2 2.3-1.8s1.7 1.3 1.5 2.5"/>
  <path d="M19.1 18.4c.2-1.2 1.2-2 2.3-1.8s1.7 1.3 1.5 2.5"/>
  <path d="M18.1 21.8c.2-1.2 1.2-2 2.3-1.8s1.7 1.3 1.5 2.5"/>
  <path d="M16 14.1c.2-1.2 1.2-2 2.3-1.8s1.7 1.3 1.5 2.5"/>
  <path d="M14.9 17.6c.2-1.2 1.2-2 2.3-1.8s1.7 1.3 1.5 2.5"/>
  <path d="M13.8 21.1c.2-1.2 1.2-2 2.3-1.8s1.7 1.3 1.5 2.5"/>
  <path d="M32.5 23.4s3.8-1.4 1.1-4.5"/>
  <path d="M35.3 24.3s2.9-2 .9-6"/>
  <path d="M25.6 19.6s2.5-.5 2.6 1.8-1.7 2.6-3.2 2l-.5 2.2s3.7 1.2 5.7-1.4 1.5-5.1-.6-6.9-2.7-1.2-3.9-.6v2.8Z"/>
</svg>
