<svg xmlns="http://www.w3.org/2000/svg" width="24" height="24" viewBox="0 0 24 24" fill="none" stroke="currentColor" stroke-width="1.5" stroke-linecap="round" stroke-linejoin="round">
  <path d="M4 15.2C4 13 5.8 11.9 12 11.9C18.2 11.9 20 13 20 15.2C20 17.4 18.2 18.5 12 18.5C5.8 18.5 4 17.4 4 15.2Z"/>
  <path d="M8.2 11.9C9 9.7 10.4 7.5 11.5 6.2C11.8 5.85 12.2 5.85 12.5 6.2C13.6 7.5 15 9.7 15.8 11.9"/>
  <circle cx="8" cy="14.6" r="0.7" fill="currentColor" stroke="none"/>
  <circle cx="11" cy="14.6" r="0.7" fill="currentColor" stroke="none"/>
  <circle cx="14" cy="14.6" r="0.7" fill="currentColor" stroke="none"/>
  <circle cx="17" cy="14.6" r="0.7" fill="currentColor" stroke="none"/>
  <circle cx="9.5" cy="16.7" r="0.7" fill="currentColor" stroke="none"/>
  <circle cx="12.5" cy="16.7" r="0.7" fill="currentColor" stroke="none"/>
  <circle cx="15.5" cy="16.7" r="0.7" fill="currentColor" stroke="none"/>
</svg>
