<svg xmlns="http://www.w3.org/2000/svg" width="24" height="24" viewBox="0 0 24 24" fill="none" stroke="currentColor" stroke-width="1.5" stroke-linecap="round" stroke-linejoin="round">
  <path d="M14.5 4.4C13 4.1 11 4.2 9.4 4.8C7.6 5.5 5.9 6.5 5 7.9C4.4 9.2 4.1 10.6 4.2 12C4.3 13.6 4.4 14.9 5.1 16C6 17.5 7.7 18.6 9.4 19.1C11 19.6 13 19.8 14.5 19.6Z"/>
  <path d="M14.5 10C13.8 9.3 12.8 8.9 11.9 8.9C10.2 8.9 8.9 10.2 8.8 11.9C8.7 13.4 9.8 14.8 11.3 15C12.4 15.1 13.6 14.8 14.5 14"/>
  <path d="M14.5 10.6A1.4 1.4 0 0 0 14.5 13.4Z" fill="currentColor" stroke="none"/>
</svg>
