<svg xmlns="http://www.w3.org/2000/svg" width="24" height="24" viewBox="0 0 24 24" fill="none" stroke="currentColor" stroke-width="1.5" stroke-linecap="round" stroke-linejoin="round">
  <g transform="rotate(-51.8 12 12)">
    <path d="M20.6 12.3C20.5 14.2 18.6 16.5 16.3 17.7C14.9 18.4 13.1 18.8 11.7 18.6L11.2 16.8 10.3 18.4C8.7 18.1 6.2 16.7 4.9 14.9C4.1 13.7 3.6 12.5 3.7 11.3L5.5 10.7 4.2 9.4C4.9 8 6.5 6.7 8.3 6C9.7 5.5 11.1 5.3 12.5 5.5C14.7 5.8 16.9 6.6 18.5 7.9L17.4 9.3 19.5 9.7C20.2 10.4 20.6 11.3 20.6 12.3Z"/>
    <path d="M9.5 9C10 11 10.2 13 9.9 15.3M12.5 8.4C12.9 10.6 12.9 13 12.6 15.6M15.5 9.4C15.6 11.3 15.5 13.2 15.1 15"/>
  </g>
</svg>
