<svg xmlns="http://www.w3.org/2000/svg" width="24" height="24" viewBox="0 0 24 24" fill="none" stroke="currentColor" stroke-width="1.5" stroke-linecap="round" stroke-linejoin="round">
  <path d="M3 12C4.6 9 7.8 7.2 11.3 7.2C14.5 7.2 16.6 8.9 17.5 12C16.6 15.1 14.5 16.8 11.3 16.8C7.8 16.8 4.6 15 3 12Z"/>
  <path d="M17.5 12C18.6 10.8 20 9.6 21.2 9C21.4 11 21.4 13 21.2 15C20 14.4 18.6 13.2 17.5 12Z"/>
  <path d="M10.5 7.3C11.2 5.8 12.6 5 13.8 5.2C13.6 6.1 13.2 6.8 12.6 7.2"/>
  <circle cx="6.2" cy="11.2" r="0.65" fill="currentColor" stroke="none"/>
  <path d="M10.2 9.2 8.8 13.6M13.2 9 11.8 13.8"/>
</svg>
