<svg xmlns="http://www.w3.org/2000/svg" width="24" height="24" viewBox="0 0 24 24" fill="none" stroke="currentColor" stroke-width="1.5" stroke-linecap="round" stroke-linejoin="round">
  <path d="M9.3 8.3C8.5 7.6 8.5 6.9 9.3 6.2C10.1 5.5 10.1 4.8 9.3 4.1"/>
  <path d="M13.3 8.3C12.5 7.6 12.5 6.9 13.3 6.2C14.1 5.5 14.1 4.8 13.3 4.1"/>
  <path d="M6.2 10.3H15.2L14 17.2C13.8 18.1 13.1 18.6 12.1 18.6H9.3C8.3 18.6 7.6 18.1 7.4 17.2Z"/>
  <path d="M15 12C17.2 12 18.3 13 18.3 14.1C18.3 15.3 17.1 16.1 14.7 16.2"/>
</svg>
