<svg xmlns="http://www.w3.org/2000/svg" width="24" height="24" viewBox="0 0 24 24" fill="none" stroke="currentColor" stroke-width="1.5" stroke-linecap="round" stroke-linejoin="round">
  <path d="M12 3.5C16 3.3 19 5.6 19.3 9.2C19.5 11.6 19 14 17.4 15.9C16.4 17.1 15 17.9 13.4 18.1C13.2 19.5 12.5 20.3 11.4 20.3C10.5 20.3 9.9 19.6 9.8 18.1C8.1 17.8 6.5 16.9 5.4 15.3C4.2 13.6 3.9 11.2 4.5 9C5.2 5.9 7.8 3.7 12 3.5Z"/>
  <path d="M8 8C10 9.5 10 11 8.5 12.5"/>
  <path d="M15.5 8C13.5 9.5 14 12 12 13.5C10.5 14.6 8.5 14 7 14.8"/>
</svg>
