<svg xmlns="http://www.w3.org/2000/svg" width="24" height="24" viewBox="0 0 24 24" fill="none" stroke="currentColor" stroke-width="1.5" stroke-linecap="round" stroke-linejoin="round">
  <path d="M8 13V5.5A1.5 1.5 0 0 1 11 5.5V12"/>
  <path d="M11 5.5V3.5A1.5 1.5 0 1 1 14 3.5V12"/>
  <path d="M14 5.5A1.5 1.5 0 0 1 17 5.5V12"/>
  <path d="M17 7.5A1.5 1.5 0 0 1 20 7.5V16A6 6 0 0 1 14 22H12H12.2A6 6 0 0 1 7.2 19.3A69.7 69.7 0 0 1 7 19C6.7 18.5 5.6 16.6 3.7 13.3A1.5 1.5 0 0 1 4.24 11.28A1.87 1.87 0 0 1 6.52 11.56L8 13"/>
</svg>
