<svg xmlns="http://www.w3.org/2000/svg" width="24" height="24" viewBox="0 0 24 24" fill="none" stroke="currentColor" stroke-width="1.5" stroke-linecap="round" stroke-linejoin="round">
  <path d="M13.9,19.6l1.6-.4.5,1.7s.8-2.9,1.4-4.5,0-2.7-.6-3.2-1-1.6-1-1.6c0,0,1.2-1.1,1.9-.9s-1.2-1.1-.8-1.5,1.1-.9,1.7-.8,1.2.1,2.1,0,1.5-.4,1.5-.4l1,.9s0-1.8-.6-2.2-.8-1.4-.8-1.4c0,0,.2-1.4-.3-1.9s-2.3,0-2.3,0c0,0-2.6-.7-3.6.3s-1.9,2.3-3.4,2.5-1.5-.5-1.9-.2-1.5,0-1.6-.7-.7-.8-.9.2-1-.3-1.4.5.1,1.3-.4,1.6-.6,2.2-2.6,2.3-2.3,0-2.5,1.2,1.3,0,2.5.5,2.2.8,2.5,1.4,1.6,1.7,2.2,1.9,1.3,1,1.3,1.4-1.2,1.3.5.9,2.1-.4,3.2-.4,1.4-.2,1.7.2-.8,2.7-.8,2.7Z"/>
</svg>
