<svg xmlns="http://www.w3.org/2000/svg" width="24" height="24" viewBox="0 0 24 24" fill="none" stroke="currentColor" stroke-width="1.5" stroke-linecap="round" stroke-linejoin="round">
  <path d="M16.5 3C15.8 4.6 15 5.2 13.8 5.6C11.5 6.3 8.8 6.5 6.5 7C5.2 7.3 4.4 7.6 4.2 8.2C4 9 4.8 10.2 5.5 11C6.2 11.9 6.4 13 6.5 14C6.7 15 7 15.8 7.5 16.5C8 17.2 8.2 17.6 8.5 18C9.5 19.2 11 20.6 12.5 21C13.4 21.2 14.2 19 15 17C15.8 15 17.2 14.4 18.5 13.5C19.6 12.7 20.2 11.6 20 10.5C19.8 9.2 18.6 8 18.5 7C18.4 5.6 17.2 4 16.5 3Z"/>
</svg>
