<svg xmlns="http://www.w3.org/2000/svg" width="24" height="24" viewBox="0 0 24 24" fill="none" stroke="currentColor" stroke-width="1.5" stroke-linecap="round" stroke-linejoin="round">
  <path d="M18.3 6C19.2 6 19.7 6.8 19.7 8V12.5C19.7 13.7 19.2 14.5 18.3 14.5L14.8 14.5C13 14.9 11 14.9 9.1 14.6C9 16 7.8 17 6.4 16.6C5 16.2 4.8 14.6 5.6 13.6C4.3 12.8 4 11.3 4.8 9.6C6.2 6.8 10 5.6 14.8 6Z"/>
  <path d="M14.8 6C14.4 8.8 14.4 11.8 14.8 14.5"/>
  <path d="M5.6 13.6C7 14 8.5 14.3 9.1 14.6"/>
  <path d="M17.2 6.6V13.9"/>
</svg>
