<svg xmlns="http://www.w3.org/2000/svg" width="24" height="24" viewBox="0 0 24 24" fill="none" stroke="currentColor" stroke-width="1.5" stroke-linecap="round" stroke-linejoin="round">
  <path d="M9.5 9L3.5 8"/>
  <path d="M9.5 8.3C8 8.3 7.2 9.6 7.8 11C8.3 12.2 9.7 12.8 11.2 12.6C13 12.4 14.3 11 14.3 9.4C14.3 8.4 13.4 7.9 12.3 8C11.3 8.1 10.3 8.2 9.5 8.3Z"/>
  <path d="M12 9C14 7.5 16.5 7.6 18 9.2C16.2 9.4 14.6 9.9 13.3 10.9"/>
  <path d="M11.2 12.6L12.5 16L14.3 13"/>
  <circle cx="9.8" cy="9" r="0.55" fill="currentColor" stroke="none"/>
</svg>
