<svg xmlns="http://www.w3.org/2000/svg" width="24" height="24" viewBox="0 0 24 24" fill="none" stroke="currentColor" stroke-width="1.5" stroke-linecap="round" stroke-linejoin="round">
  <path d="M12 12C10.8 10 10.8 6.8 12 5C13.2 6.8 13.2 10 12 12Z"/>
  <path d="M12 12C10.8 10 10.8 6.8 12 5C13.2 6.8 13.2 10 12 12Z" transform="rotate(72 12 12)"/>
  <path d="M12 12C10.8 10 10.8 6.8 12 5C13.2 6.8 13.2 10 12 12Z" transform="rotate(144 12 12)"/>
  <path d="M12 12C10.8 10 10.8 6.8 12 5C13.2 6.8 13.2 10 12 12Z" transform="rotate(216 12 12)"/>
  <path d="M12 12C10.8 10 10.8 6.8 12 5C13.2 6.8 13.2 10 12 12Z" transform="rotate(288 12 12)"/>
  <circle cx="12" cy="12" r="1.4"/>
</svg>
