<svg xmlns="http://www.w3.org/2000/svg" width="24" height="24" viewBox="0 0 24 24" fill="none" stroke="currentColor" stroke-width="1.5" stroke-linecap="round" stroke-linejoin="round">
  <path d="M11 9.3C7.5 7.8 6 7.4 4.8 7.2C6.6 8.6 8.4 9.6 11.4 10"/>
  <path d="M11 9.2C8.6 6.2 7.8 5.2 7 4C7.8 6.2 8.8 8 11.7 8.8"/>
  <path d="M11.3 8.9C11.3 5.5 11.5 4.4 12 2.8C12.5 4.4 12.7 5.5 12.7 8.9"/>
  <path d="M13 9.2C15.4 6.2 16.2 5.2 17 4C16.2 6.2 15.2 8 12.3 8.8"/>
  <path d="M13 9.3C16.5 7.8 18 7.4 19.2 7.2C17.4 8.6 15.6 9.6 12.6 10"/>
  <path d="M10 6C10.5 7.7 10.6 9 10.2 10.4"/>
  <path d="M12 5.6V10.3"/>
  <path d="M14 6C13.5 7.7 13.4 9 13.8 10.4"/>
  <path d="M10.6 10.2V19.4C10.6 20.7 11.2 21.4 12 21.4C12.8 21.4 13.4 20.7 13.4 19.4V10.2"/>
  <path d="M10.6 12.8 12 13.7 13.4 12.8M10.6 15.4 12 16.3 13.4 15.4M10.6 18 12 18.9 13.4 18"/>
</svg>
