<svg xmlns="http://www.w3.org/2000/svg" width="24" height="24" viewBox="0 0 24 24" fill="none" stroke="currentColor" stroke-width="1.5" stroke-linecap="round" stroke-linejoin="round">
  <path d="M6 9C6 6.5 8.5 5.5 12 5.5C15.5 5.5 18 6.5 18 9C18 13 15.5 18 12 18C8.5 18 6 13 6 9Z"/>
  <path d="M7.2 6.6C6 4.8 5.6 2.8 6.5 2.2C7.4 1.6 8.9 3.6 10 5.7"/>
  <path d="M16.8 6.6C18 4.8 18.4 2.8 17.5 2.2C16.6 1.6 15.1 3.6 14 5.7"/>
  <circle cx="9.6" cy="10.3" r="0.7" fill="currentColor" stroke="none"/>
  <circle cx="14.4" cy="10.3" r="0.7" fill="currentColor" stroke="none"/>
  <path d="M11.2 13H12.8L12 13.9Z"/>
  <path d="M12 13.9V15.2M12 15.2C11.4 15.9 10.5 15.7 10 15.1M12 15.2C12.6 15.9 13.5 15.7 14 15.1"/>
  <circle cx="7.8" cy="12.6" r="0.5" fill="currentColor" stroke="none"/>
  <circle cx="16.2" cy="12.6" r="0.5" fill="currentColor" stroke="none"/>
  <circle cx="10.4" cy="8.3" r="0.5" fill="currentColor" stroke="none"/>
  <circle cx="13.6" cy="8.3" r="0.5" fill="currentColor" stroke="none"/>
  <circle cx="12" cy="7.4" r="0.5" fill="currentColor" stroke="none"/>
  <circle cx="9.2" cy="14.8" r="0.5" fill="currentColor" stroke="none"/>
  <circle cx="14.8" cy="14.8" r="0.5" fill="currentColor" stroke="none"/>
</svg>
