<svg xmlns="http://www.w3.org/2000/svg" width="24" height="24" viewBox="0 0 24 24" fill="none" stroke="currentColor" stroke-width="1.5" stroke-linecap="round" stroke-linejoin="round">
  <path d="M11 8C9.9 6.3 9.9 4 11 3.2C12.1 4 12.1 6.3 11 8Z"/>
  <path d="M11 8C9.9 6.3 9.9 4 11 3.2C12.1 4 12.1 6.3 11 8Z" transform="rotate(72 11 8)"/>
  <path d="M11 8C9.9 6.3 9.9 4 11 3.2C12.1 4 12.1 6.3 11 8Z" transform="rotate(144 11 8)"/>
  <path d="M11 8C9.9 6.3 9.9 4 11 3.2C12.1 4 12.1 6.3 11 8Z" transform="rotate(216 11 8)"/>
  <path d="M11 8C9.9 6.3 9.9 4 11 3.2C12.1 4 12.1 6.3 11 8Z" transform="rotate(288 11 8)"/>
  <circle cx="11" cy="8" r="0.9"/>
  <path d="M11.6 10.6C12.1 14 12.5 17 13 21"/>
  <path d="M12.4 17C14.6 16.3 16.9 16.8 18 19C15.8 19.5 13.5 19 12.4 17Z"/>
</svg>
