<svg xmlns="http://www.w3.org/2000/svg" width="24" height="24" viewBox="0 0 24 24" fill="none" stroke="currentColor" stroke-width="1.5" stroke-linecap="round" stroke-linejoin="round">
  <path d="M3.2 10.8C3.9 9.8 4.9 9.2 6 8.9C6.5 8.75 6.8 8.3 7 7.9C7.6 7.2 9 7 11 7C14 7 16.5 7.2 18.3 8.4C18.8 9.6 18.7 11 18.2 12.2L17.9 19.6C17.9 20 17.2 20 17.1 19.6L16.8 13.4C14 13.8 11.5 13.8 9.4 13.6L9.1 19.6C9.1 20 8.4 20 8.3 19.6L8.1 12.8C6.5 12 5 11.8 4.2 11.4C3.8 11.2 3.4 11 3.2 10.8Z"/>
  <path d="M18.2 8.4C19.8 7.7 20.8 6.1 20.7 4.5"/>
  <path d="M6.9 8C5.4 8.8 5 10.8 5.4 12.8C5.6 13.9 6.4 14.4 7.3 14C8.1 13.7 8.2 12.4 8 11C7.8 9.7 7.5 8.6 6.9 8Z"/>
  <circle cx="5.7" cy="9.2" r="0.55" fill="currentColor" stroke="none"/>
  <circle cx="3.7" cy="10.6" r="0.5" fill="currentColor" stroke="none"/>
</svg>
