<svg xmlns="http://www.w3.org/2000/svg" width="24" height="24" viewBox="0 0 24 24" fill="none" stroke="currentColor" stroke-width="1.5" stroke-linecap="round" stroke-linejoin="round">
  <path d="M3 20H21"/>
  <path d="M6.5 8.5C4.5 8.5 3.5 10 3.5 11.5C3.5 13 4.5 14 6.5 14C8.5 14 9.5 13 9.5 11.5C9.5 10 8.5 8.5 6.5 8.5Z"/>
  <path d="M6.5 14V20"/>
  <path d="M12 4C9.5 4 8 6 8 8C8 10 9.5 11.5 12 11.5C14.5 11.5 16 10 16 8C16 6 14.5 4 12 4Z"/>
  <path d="M12 11.5V20"/>
  <path d="M17.5 8.5C15.5 8.5 14.5 10 14.5 11.5C14.5 13 15.5 14 17.5 14C19.5 14 20.5 13 20.5 11.5C20.5 10 19.5 8.5 17.5 8.5Z"/>
  <path d="M17.5 14V20"/>
</svg>
