<svg xmlns="http://www.w3.org/2000/svg" width="24" height="24" viewBox="0 0 24 24" fill="none" stroke="currentColor" stroke-width="1.5" stroke-linecap="round" stroke-linejoin="round">
  <path d="M6.6 11C6.3 9 5.6 7.2 6.6 5.8C7.6 4.4 9 5.2 9.8 3.8C10.8 2.2 12.8 2.8 14.4 5.8C15.1 7.3 15.4 8.4 16.3 8.1C17.2 7.8 17.7 9 17.4 11"/>
  <path d="M6.6 11H17.4C17.9 14.6 17.5 18.2 16 20C15.2 21 13.8 21.3 12 21.3C10.2 21.3 8.8 21 8 20C6.5 18.2 6.1 14.6 6.6 11Z"/>
  <path d="M8.2 14.6 10.1 13 12 14.6 13.9 13 15.8 14.6"/>
  <path d="M8.2 18 10.1 16.5 12 18 13.9 16.5 15.8 18"/>
</svg>
